<svg width="24" height="25" viewBox="0 0 24 25" fill="none" xmlns="http://www.w3.org/2000/svg">
<path d="M22.4122 0.0301645C22.3217 0.0301645 22.2915 0.0904934 22.2312 0.120658L10.9195 8.1444C10.7989 8.2349 10.6179 8.47621 10.5274 8.62704L10.1353 9.38115C12.3071 10.0749 13.9661 11.734 14.6599 13.9058L15.414 13.5137C15.5649 13.4232 15.776 13.2724 15.8967 13.1215L23.9204 1.80987C24.0109 1.65905 24.0411 1.53839 23.9204 1.41773L22.5932 0.0904934C22.5329 0.0301645 22.4725 0 22.4122 0V0.0301645ZM7.99358 12.0055C5.76141 12.0055 4.04204 13.8455 4.04204 16.0475C4.04204 19.0338 2.38299 21.6279 0 23.0155C1.17641 23.6791 2.59414 24.0411 4.04204 24.0411C8.47621 24.0411 12.0658 20.4817 12.0658 16.0173C12.0658 13.7852 10.2258 11.9753 8.02375 11.9753L7.99358 12.0055Z" fill="white"/>
</svg>
