<!DOCTYPE svg PUBLIC "-//W3C//DTD SVG 1.1//EN" "http://www.w3.org/Graphics/SVG/1.1/DTD/svg11.dtd">
<!-- Uploaded to: SVG Repo, www.svgrepo.com, Transformed by: SVG Repo Mixer Tools -->
<svg fill="#ffffff" height="64px" width="64px" version="1.1" id="Layer_1" xmlns="http://www.w3.org/2000/svg" xmlns:xlink="http://www.w3.org/1999/xlink" viewBox="0 0 493.56 493.56" xml:space="preserve" stroke="#ffffff" stroke-width="0.00493564" transform="rotate(0)">
<g id="SVGRepo_bgCarrier" stroke-width="0"/>
<g id="SVGRepo_tracerCarrier" stroke-linecap="round" stroke-linejoin="round"/>
<g id="SVGRepo_iconCarrier"> <g> <g> <path d="M139.62,0l-0.796,0.004H40.14C18.88,0.004,0.008,17.3,0.008,38.56v100.252c0,21.264,17.304,38.564,38.564,38.564 c21.264,0,38.556-17.3,38.556-38.564V77.12h63.268c21.268,0,38.568-17.3,38.568-38.564C178.964,17.296,160.88,0,139.62,0z"/> </g> </g> <g> <g> <path d="M455.004,0.004h-98.672c-21.264,0-38.556,17.296-38.556,38.556c0,21.264,17.288,38.564,38.556,38.564h60.12v61.692 c0,21.264,17.296,38.564,38.552,38.564c21.264,0,38.556-17.3,38.556-38.564V38.56C493.556,17.3,476.268,0.004,455.004,0.004z"/> </g> </g> <g> <g> <path d="M139.612,416.44l-0.788,0h-61.7v-61.696c0-21.26-17.292-38.556-38.556-38.556c-21.256,0-38.564,17.296-38.564,38.556 v100.252c0,21.264,18.872,38.568,40.132,38.568h100.252c21.268,0,38.568-17.304,38.568-38.568 C178.956,433.74,160.872,416.44,139.612,416.44z"/> </g> </g> <g> <g> <path d="M455.004,316.188c-21.252,0-38.552,17.296-38.552,38.556v61.696h-60.12c-21.264,0-38.556,17.3-38.556,38.556 c0,21.264,17.288,38.568,38.556,38.568h100.26c21.256,0,36.964-17.304,36.964-38.568V354.744 C493.556,333.484,476.268,316.188,455.004,316.188z"/> </g> </g> </g>
</svg>