<!DOCTYPE svg PUBLIC "-//W3C//DTD SVG 1.1//EN" "http://www.w3.org/Graphics/SVG/1.1/DTD/svg11.dtd">
<!-- Uploaded to: SVG Repo, www.svgrepo.com, Transformed by: SVG Repo Mixer Tools -->
<svg width="64px" height="64px" viewBox="0 0 24 24" fill="none" xmlns="http://www.w3.org/2000/svg" stroke="#ffffff" transform="rotate(45)">
<g id="SVGRepo_bgCarrier" stroke-width="0"/>
<g id="SVGRepo_tracerCarrier" stroke-linecap="round" stroke-linejoin="round"/>
<g id="SVGRepo_iconCarrier"> <path d="M6 11.5787V19C6 20.1046 6.89543 21 8 21H16C17.1046 21 18 20.1046 18 19V11.5787C18 11.2007 17.8929 10.8303 17.691 10.5107L13.5 3.875C12.8038 2.77266 11.1962 2.77266 10.5 3.875L6.30902 10.5107C6.10715 10.8303 6 11.2007 6 11.5787Z" stroke="#ffffff" stroke-width="2" stroke-linecap="round" stroke-linejoin="round"/> <path d="M14.8293 6C14.4175 7.16519 13.3062 8 12 8C10.6938 8 9.58255 7.16519 9.17072 6" stroke="#ffffff" stroke-width="2" stroke-linecap="round"/> <path d="M6 13L18 13" stroke="#ffffff" stroke-width="2" stroke-linecap="round" stroke-linejoin="round"/> </g>
</svg>