<svg width="24" height="24" viewBox="0 0 24 24" fill="none" xmlns="http://www.w3.org/2000/svg">
<path d="M11.9766 0C5.4 0 0 5.4 0 11.9766C0 18.5531 5.4 23.9531 11.9766 23.9531C13.1109 23.9531 13.9781 23.0812 13.9781 21.9516C13.9781 21.4266 13.7625 20.9484 13.4531 20.6016C13.1062 20.2547 12.9281 19.8188 12.9281 19.2516C12.9281 18.1172 13.8 17.25 14.9297 17.25H17.325C20.9859 17.25 23.9906 14.2453 23.9906 10.5844C23.9578 4.79063 18.5531 0 11.9766 0ZM4.65937 11.9766C3.525 11.9766 2.65781 11.1047 2.65781 9.975C2.65781 8.84531 3.52969 7.97344 4.65937 7.97344C5.78906 7.97344 6.66094 8.84531 6.66094 9.975C6.66094 11.1047 5.79375 11.9766 4.65937 11.9766ZM8.66719 6.66094C7.53281 6.66094 6.66562 5.78906 6.66562 4.65938C6.66562 3.52969 7.5375 2.65781 8.66719 2.65781C9.79687 2.65781 10.6687 3.52969 10.6687 4.65938C10.6266 5.79375 9.80156 6.66094 8.66719 6.66094ZM15.2906 6.66094C14.1562 6.66094 13.2891 5.78906 13.2891 4.65938C13.2891 3.52969 14.1609 2.65781 15.2906 2.65781C16.4203 2.65781 17.2922 3.52969 17.2922 4.65938C17.2922 5.79375 16.4203 6.66094 15.2906 6.66094ZM19.2937 11.9766C18.1594 11.9766 17.2922 11.1047 17.2922 9.975C17.2922 8.84531 18.1641 7.97344 19.2937 7.97344C20.4234 7.97344 21.2953 8.84531 21.2953 9.975C21.2953 11.1047 20.4281 11.9766 19.2937 11.9766Z" fill="white"/>
</svg>
