<!DOCTYPE svg PUBLIC "-//W3C//DTD SVG 1.1//EN" "http://www.w3.org/Graphics/SVG/1.1/DTD/svg11.dtd">
<!-- Uploaded to: SVG Repo, www.svgrepo.com, Transformed by: SVG Repo Mixer Tools -->
<svg fill="#ffffff" height="64px" width="64px" version="1.1" xmlns="http://www.w3.org/2000/svg" viewBox="0 0 420.732 420.732" xmlns:xlink="http://www.w3.org/1999/xlink" enable-background="new 0 0 420.732 420.732" stroke="#ffffff" stroke-width="8.835372">
<g id="SVGRepo_bgCarrier" stroke-width="0"/>
<g id="SVGRepo_tracerCarrier" stroke-linecap="round" stroke-linejoin="round"/>
<g id="SVGRepo_iconCarrier"> <g> <path d="m284.866,363.689c-35.542,0-64.457-28.916-64.457-64.457 0-5.523-4.477-10-10-10-5.523,0-10,4.477-10,10 0,46.57 37.887,84.457 84.457,84.457 5.523,0 10-4.477 10-10s-4.477-10-10-10z"/> <path d="m370.702,400.732h-19.133c32.983-21.749 54.797-59.122 54.797-101.5 0-52.965-34.069-98.114-81.441-114.706l-75.591-178.427c-1.566-3.697-5.192-6.099-9.208-6.099s-7.642,2.402-9.208,6.099l-56.726,133.901h-122.826c-5.523,0-10,4.477-10,10v191h-17c-5.523,0-10,4.477-10,10s4.477,10 10,10h155.913c9.452,15.944 22.443,29.55 37.885,39.732h-19.132c-5.523,0-10,4.477-10,10s4.477,10 10,10h171.67c5.523,0 10-4.477 10-10s-4.478-10-10-10zm-130.576-365.097l60.64,143.137c-5.205-0.683-10.512-1.041-15.9-1.041-7.687,0-15.206,0.726-22.5,2.097v-29.828c0-5.523-4.477-10-10-10h-56.453l44.213-104.365zm-178.76,305.365v-181h181v25.409c-46.097,17.268-79,61.773-79,113.823 0,14.668 2.613,28.738 7.398,41.768h-109.398zm122-41.768c0-55.967 45.533-101.5 101.5-101.5s101.5,45.533 101.5,101.5-45.533,101.5-101.5,101.5-101.5-45.533-101.5-101.5z"/> </g> </g>
</svg>